<?xml version="1.0" encoding="utf-8"?>
<!-- Generator: Adobe Illustrator 23.0.5, SVG Export Plug-In . SVG Version: 6.00 Build 0)  -->
<svg version="1.1" id="Слой_1" xmlns="http://www.w3.org/2000/svg" xmlns:xlink="http://www.w3.org/1999/xlink" x="0px" y="0px"
	 viewBox="0 0 50 50" style="enable-background:new 0 0 50 50;" xml:space="preserve">
<style type="text/css">
	.st0{fill-rule:evenodd;clip-rule:evenodd;}
</style>
<path d="M48.1,15.4c-1.3-3-3.1-5.8-5.4-8.1c-2.3-2.3-5.1-4.2-8.1-5.4S28.3,0,25,0c-3.3,0-6.5,0.6-9.6,1.9c-3,1.3-5.8,3.1-8.1,5.4
	C5,9.6,3.2,12.4,1.9,15.4C0.6,18.5,0,21.7,0,25c0,3.3,0.6,6.5,1.9,9.6s3.1,5.8,5.4,8.1c2.3,2.3,5.1,4.2,8.1,5.4
	c3,1.3,6.3,1.9,9.6,1.9c3.3,0,6.5-0.6,9.6-1.9c3-1.3,5.8-3.1,8.1-5.4c2.3-2.3,4.2-5.1,5.4-8.1c1.3-3,1.9-6.3,1.9-9.6
	C50,21.7,49.4,18.5,48.1,15.4z M45.3,33.4c-1.1,2.7-2.7,5.1-4.8,7.1c-2,2-4.5,3.7-7.1,4.8C30.8,46.4,27.9,47,25,47
	c-2.9,0-5.8-0.6-8.4-1.7c-2.7-1.1-5.1-2.7-7.1-4.8c-2-2-3.7-4.5-4.8-7.1C3.6,30.8,3,27.9,3,25c0-2.9,0.6-5.8,1.7-8.4
	c1.1-2.7,2.7-5.1,4.8-7.1c2-2,4.5-3.7,7.1-4.8C19.2,3.6,22.1,3,25,3c2.9,0,5.8,0.6,8.4,1.7c2.7,1.1,5.1,2.7,7.1,4.8
	c2,2,3.7,4.5,4.8,7.1c1.1,2.7,1.7,5.5,1.7,8.4C47,27.9,46.4,30.8,45.3,33.4z"/>
<path class="st0" d="M25,40c0.8,0,1.5-0.3,2-0.8c0.5-0.5,0.8-1.3,0.8-2s-0.3-1.5-0.8-2c-0.5-0.5-1.3-0.8-2-0.8s-1.5,0.3-2,0.8
	c-0.5,0.5-0.8,1.3-0.8,2s0.3,1.5,0.8,2C23.5,39.6,24.2,40,25,40z"/>
<rect x="23" y="11.7" width="4" height="18"/>
</svg>
