<svg width="32" height="32" viewBox="0 0 32 32" fill="none" xmlns="http://www.w3.org/2000/svg">
<path fill-rule="evenodd" clip-rule="evenodd" d="M9.43224 0.107024C11.1261 0.0290469 11.6661 0.0117188 15.9808 0.0117188C20.2956 0.0117188 20.8356 0.0304909 22.528 0.107024C24.2204 0.183557 25.3756 0.453588 26.3864 0.844916C27.4449 1.24491 28.4052 1.87017 29.1994 2.67881C30.008 3.47158 30.6318 4.43041 31.0304 5.49031C31.4232 6.50112 31.6917 7.65634 31.7697 9.34583C31.8477 11.0426 31.865 11.5826 31.865 15.8959C31.865 20.2106 31.8462 20.7507 31.7697 22.4445C31.6932 24.134 31.4232 25.2892 31.0304 26.3C30.6318 27.3601 30.007 28.3205 29.1994 29.1144C28.4052 29.9231 27.4449 30.5469 26.3864 30.9454C25.3756 31.3382 24.2204 31.6068 22.5309 31.6848C20.8356 31.7627 20.2956 31.7801 15.9808 31.7801C11.6661 31.7801 11.1261 31.7613 9.43224 31.6848C7.74274 31.6082 6.58753 31.3382 5.57672 30.9454C4.5167 30.5468 3.55628 29.922 2.76233 29.1144C1.95423 28.3212 1.32888 27.3612 0.929877 26.3015C0.538548 25.2907 0.269962 24.1354 0.191985 22.4459C0.114008 20.7492 0.0966797 20.2092 0.0966797 15.8959C0.0966797 11.5812 0.115452 11.0411 0.191985 9.34872C0.268517 7.65634 0.538548 6.50112 0.929877 5.49031C1.32947 4.43052 1.9553 3.47059 2.76378 2.67737C3.5566 1.86945 4.51605 1.2441 5.57527 0.844916C6.58608 0.453588 7.7413 0.185001 9.4308 0.107024H9.43224ZM22.3995 2.96617C20.7244 2.88964 20.2219 2.87376 15.9808 2.87376C11.7398 2.87376 11.2373 2.88964 9.5622 2.96617C8.01277 3.03693 7.17236 3.29541 6.61208 3.51346C5.8713 3.80226 5.34134 4.14449 4.7854 4.70044C4.2584 5.21314 3.85282 5.83728 3.59842 6.52712C3.38037 7.08739 3.12189 7.92781 3.05114 9.47724C2.9746 11.1523 2.95872 11.6548 2.95872 15.8959C2.95872 20.137 2.9746 20.6395 3.05114 22.3145C3.12189 23.864 3.38037 24.7044 3.59842 25.2647C3.85256 25.9535 4.25833 26.5787 4.7854 27.0913C5.29802 27.6184 5.92328 28.0242 6.61208 28.2783C7.17236 28.4964 8.01277 28.7548 9.5622 28.8256C11.2373 28.9021 11.7383 28.918 15.9808 28.918C20.2234 28.918 20.7244 28.9021 22.3995 28.8256C23.9489 28.7548 24.7893 28.4964 25.3496 28.2783C26.0904 27.9895 26.6204 27.6473 27.1763 27.0913C27.7034 26.5787 28.1091 25.9535 28.3633 25.2647C28.5813 24.7044 28.8398 23.864 28.9106 22.3145C28.9871 20.6395 29.003 20.137 29.003 15.8959C29.003 11.6548 28.9871 11.1523 28.9106 9.47724C28.8398 7.92781 28.5813 7.08739 28.3633 6.52712C28.0745 5.78634 27.7322 5.25638 27.1763 4.70044C26.6636 4.17347 26.0394 3.76791 25.3496 3.51346C24.7893 3.29541 23.9489 3.03693 22.3995 2.96617ZM13.952 20.7925C15.0851 21.2642 16.3467 21.3279 17.5215 20.9726C18.6963 20.6174 19.7113 19.8654 20.3932 18.8449C21.0751 17.8245 21.3815 16.5989 21.2602 15.3776C21.1389 14.1563 20.5974 13.015 19.7281 12.1487C19.1739 11.5949 18.5039 11.1708 17.7661 10.907C17.0284 10.6433 16.2414 10.5463 15.4617 10.6232C14.682 10.7001 13.9291 10.9489 13.2572 11.3518C12.5852 11.7546 12.0109 12.3014 11.5756 12.9528C11.1403 13.6042 10.8549 14.344 10.7398 15.119C10.6248 15.8939 10.683 16.6847 10.9102 17.4345C11.1375 18.1843 11.5282 18.8743 12.0542 19.455C12.5801 20.0356 13.2283 20.4925 13.952 20.7925ZM10.2077 10.1227C10.9658 9.36457 11.8659 8.76318 12.8564 8.35287C13.847 7.94257 14.9087 7.73139 15.9808 7.73139C17.053 7.73139 18.1147 7.94257 19.1053 8.35287C20.0958 8.76318 20.9959 9.36457 21.754 10.1227C22.5122 10.8809 23.1136 11.7809 23.5239 12.7715C23.9342 13.762 24.1453 14.8237 24.1453 15.8959C24.1453 16.9681 23.9342 18.0297 23.5239 19.0203C23.1136 20.0109 22.5122 20.9109 21.754 21.6691C20.2229 23.2002 18.1462 24.0604 15.9808 24.0604C13.8155 24.0604 11.7388 23.2002 10.2077 21.6691C8.67653 20.1379 7.81635 18.0612 7.81635 15.8959C7.81635 13.7305 8.67653 11.6539 10.2077 10.1227ZM25.9561 8.94729C26.144 8.77006 26.2944 8.55694 26.3984 8.32055C26.5024 8.08415 26.558 7.82928 26.5618 7.57104C26.5655 7.31279 26.5174 7.05642 26.4203 6.81709C26.3232 6.57776 26.1791 6.36035 25.9965 6.17772C25.8139 5.99509 25.5964 5.85097 25.3571 5.75387C25.1178 5.65678 24.8614 5.60869 24.6032 5.61245C24.3449 5.61622 24.0901 5.67176 23.8537 5.77579C23.6173 5.87982 23.4041 6.03022 23.2269 6.2181C22.8822 6.58348 22.6935 7.0688 22.7009 7.57104C22.7082 8.07328 22.911 8.55289 23.2661 8.90807C23.6213 9.26325 24.1009 9.46602 24.6032 9.47334C25.1054 9.48066 25.5907 9.29196 25.9561 8.94729Z" fill="white"/>
</svg>
