<svg width="36" height="37" viewBox="0 0 36 37" fill="none" xmlns="http://www.w3.org/2000/svg">
<path d="M18 0.75C8.52687 0.75 0.75 8.13444 0.75 17.2812C0.75 22.1544 3.00687 26.4841 6.5 29.5V36.1484L12.8796 32.9586C14.5011 33.4474 16.1974 33.8125 18 33.8125C27.4731 33.8125 35.25 26.4281 35.25 17.2812C35.25 8.13444 27.4731 0.75 18 0.75ZM18 3.625C25.9911 3.625 32.375 9.75737 32.375 17.2812C32.375 24.8051 25.9911 30.9375 18 30.9375C16.2822 30.9375 14.642 30.6112 13.1039 30.0836L12.5202 29.9039L9.375 31.4766V28.2422L8.83594 27.7922C5.64612 25.2781 3.625 21.5104 3.625 17.2812C3.625 9.75737 10.0089 3.625 18 3.625ZM16.3828 12.7445L7.71325 21.9086L15.4844 17.5961L19.6172 22.0437L28.1976 12.7431L20.6047 17.0124L16.3828 12.7445Z" fill="white"/>
</svg>
