<svg width="45" height="45" viewBox="0 0 45 45" fill="none" xmlns="http://www.w3.org/2000/svg">
<path d="M22.4998 44.5837C10.3032 44.5837 0.416504 34.697 0.416504 22.5003C0.416504 10.3037 10.3032 0.416992 22.4998 0.416992C34.6965 0.416992 44.5832 10.3037 44.5832 22.5003C44.5832 34.697 34.6965 44.5837 22.4998 44.5837ZM22.4998 40.167C27.1853 40.167 31.6789 38.3057 34.9921 34.9925C38.3052 31.6794 40.1665 27.1858 40.1665 22.5003C40.1665 17.8148 38.3052 13.3212 34.9921 10.0081C31.6789 6.69496 27.1853 4.83366 22.4998 4.83366C17.8143 4.83366 13.3208 6.69496 10.0076 10.0081C6.69448 13.3212 4.83317 17.8148 4.83317 22.5003C4.83317 27.1858 6.69448 31.6794 10.0076 34.9925C13.3208 38.3057 17.8143 40.167 22.4998 40.167ZM20.2981 31.3337L10.9282 21.9637L14.0508 18.8411L20.2981 25.0885L32.7885 12.596L35.9133 15.7185L20.2981 31.3337Z" fill="white"/>
</svg>
