<svg width="31" height="31" viewBox="0 0 31 31" fill="none" xmlns="http://www.w3.org/2000/svg">
<path d="M15.1838 0.240141C6.95268 0.240141 0.244138 6.93335 0.244138 15.1457C0.244138 17.7779 0.937606 20.3348 2.23409 22.591L0.123535 30.322L8.03811 28.2464C10.224 29.4346 12.6813 30.0663 15.1838 30.0663C23.415 30.0663 30.1235 23.3731 30.1235 15.1607C30.1235 11.1749 28.5708 7.42971 25.7517 4.61705C24.3696 3.22415 22.7233 2.11976 20.9089 1.36829C19.0945 0.616817 17.1483 0.233313 15.1838 0.240141ZM15.1989 2.75198C18.5155 2.75198 21.621 4.0455 23.9728 6.39188C25.127 7.54305 26.042 8.91021 26.6655 10.415C27.2889 11.9197 27.6085 13.5325 27.6059 15.1607C27.6059 21.9893 22.0281 27.5394 15.1838 27.5394C12.9527 27.5394 10.7668 26.9528 8.86725 25.8097L8.41499 25.554L3.71147 26.7874L4.96273 22.2149L4.66122 21.7336C3.41591 19.7613 2.75722 17.4768 2.76173 15.1457C2.7768 8.31712 8.33961 2.75198 15.1989 2.75198ZM9.89238 8.25696C9.65117 8.25696 9.24414 8.3472 8.8974 8.72322C8.56575 9.09925 7.58585 10.0167 7.58585 11.8367C7.58585 13.6717 8.92755 15.4315 9.09338 15.6872C9.30444 15.9429 11.7466 19.7031 15.5004 21.2974C16.3899 21.7035 17.0833 21.9292 17.626 22.0946C18.5155 22.3804 19.3296 22.3353 19.9778 22.245C20.7014 22.1397 22.1788 21.3426 22.4954 20.4702C22.812 19.5978 22.812 18.8608 22.7215 18.6954C22.616 18.545 22.3748 18.4547 21.9979 18.2893C21.621 18.0787 19.7818 17.1762 19.4502 17.0559C19.1034 16.9356 18.8924 16.8754 18.6059 17.2364C18.3647 17.6124 17.6411 18.4547 17.4301 18.6954C17.2039 18.9511 16.9929 18.9811 16.6311 18.8006C16.2391 18.6051 15.0331 18.2141 13.616 16.9506C12.5004 15.9579 11.7617 14.7396 11.5356 14.3636C11.3547 14.0026 11.5205 13.777 11.7014 13.6115C11.8673 13.4461 12.1085 13.1753 12.2592 12.9497C12.4552 12.7392 12.5155 12.5737 12.6361 12.333C12.7567 12.0774 12.6964 11.8668 12.6059 11.6863C12.5155 11.5208 11.7617 9.65576 11.4451 8.91876C11.1436 8.19679 10.8421 8.28704 10.6009 8.272C10.3899 8.272 10.1487 8.25696 9.89238 8.25696Z" fill="#23A30E"/>
</svg>
